<?xml version="1.0" encoding="UTF-8" standalone="no"?>
<!-- Created with Inkscape (http://www.inkscape.org/) -->

<svg
   xmlns:dc="http://purl.org/dc/elements/1.1/"
   xmlns:cc="http://creativecommons.org/ns#"
   xmlns:rdf="http://www.w3.org/1999/02/22-rdf-syntax-ns#"
   xmlns:svg="http://www.w3.org/2000/svg"
   xmlns="http://www.w3.org/2000/svg"
   xmlns:sodipodi="http://sodipodi.sourceforge.net/DTD/sodipodi-0.dtd"
   xmlns:inkscape="http://www.inkscape.org/namespaces/inkscape"
   width="31mm"
   height="48mm"
   viewBox="0 0 31 48"
   version="1.1"
   id="svg8"
   inkscape:version="0.92.4 (5da689c313, 2019-01-14)"
   sodipodi:docname="logo.svg">
  <defs
     id="defs2">
    <rect
       id="SVGID_1_"
       x="-1"
       y="-1"
       width="292.79999"
       height="363.79999" />
  </defs>
  <sodipodi:namedview
     id="base"
     pagecolor="#ffffff"
     bordercolor="#666666"
     borderopacity="1.0"
     inkscape:pageopacity="0.0"
     inkscape:pageshadow="2"
     inkscape:zoom="3.959798"
     inkscape:cx="226.48993"
     inkscape:cy="146.96172"
     inkscape:document-units="mm"
     inkscape:current-layer="layer1"
     showgrid="false"
     inkscape:window-width="3840"
     inkscape:window-height="2066"
     inkscape:window-x="1564"
     inkscape:window-y="-11"
     inkscape:window-maximized="1" />
  <metadata
     id="metadata5">
    <rdf:RDF>
      <cc:Work
         rdf:about="">
        <dc:format>image/svg+xml</dc:format>
        <dc:type
           rdf:resource="http://purl.org/dc/dcmitype/StillImage" />
        <dc:title></dc:title>
      </cc:Work>
    </rdf:RDF>
  </metadata>
  <g
     inkscape:label="Ebene 1"
     inkscape:groupmode="layer"
     id="layer1"
     transform="translate(0,-248.99999)">
    <g
       id="layer1-6"
       inkscape:label="Ebene 1"
       transform="matrix(0.67714539,0,0,0.67714539,494.22152,364.22799)">
      <path
         id="path4550"
         d="m -689.88215,-103.55082 2.77813,-0.0529 -0.0529,0.92604 -2.83104,0.0794 z m -13.81125,-0.0794 12.96459,-0.0265 c 0,0.635 -0.0265,1.7198 -0.34396,2.14313 -0.89958,0.29104 -6.0325,0.21167 -7.35542,0.18521 -1.21708,-0.0265 -2.48708,-0.0265 -3.67771,-0.10584 -0.79375,-0.0529 -1.11125,0.0794 -1.29645,-0.635 -0.0529,-0.29104 -0.29105,-1.42875 -0.29105,-1.56104 z m -22.86,1.13771 -0.10583,-1.05833 7.96396,-0.0265 c -0.10583,1.34937 -0.23813,1.11125 -3.33375,1.13771 -1.40229,0.0265 -3.14854,0.0794 -4.52438,-0.0529 z m 24.20938,-24.31521 c 0.0265,-0.52916 0.42333,-1.48166 0.76729,-1.77271 0.0794,-0.44979 0.71438,-1.29645 1.03188,-1.48166 l 0.37041,-0.39688 c 0.87313,-1.42875 2.75167,-0.13229 3.38667,0.52917 2.11667,2.27542 3.88937,7.19667 4.89479,10.29229 0.97896,3.04271 2.64583,9.12813 2.72521,12.43542 0.0529,2.19604 -0.34396,2.06375 -1.03188,2.69875 -0.34395,0.3175 -0.39687,0.29104 -0.9525,0.29104 -3.38666,-0.0265 -6.77333,0 -10.16,0 -0.5027,0 -2.14312,0.0794 -2.51354,0 -0.34396,-0.0794 -1.16416,-0.76729 -1.37583,-1.16417 -0.50271,-0.9525 -0.47625,-3.25437 -0.42333,-4.49791 0.13229,-2.9898 0.55562,-6.19125 1.08479,-9.07521 0.26458,-1.42875 1.50812,-7.19667 2.19604,-7.85813 z m -5.66208,10.66271 c 0.79375,-0.15875 1.27,-0.23812 2.14312,0 l -0.26458,2.46063 -0.10584,0.71437 -2.14312,0.3175 c -0.18521,-1.05833 -0.18521,-2.11667 -0.39688,-3.14854 0.26459,-0.15875 0.34396,-0.23813 0.7673,-0.34396 z m 21.69583,9.31333 c 0.44979,2.9898 -0.29104,2.72521 -2.88396,2.69875 0.13229,-0.39687 0.60854,-0.58208 0.76729,-1.56104 0.39688,-2.46062 -0.87312,-7.67291 -1.50812,-10.16 -0.29104,-1.11125 -0.87313,-2.69875 -1.03188,-3.73062 1.64042,1.21708 4.18042,9.73666 4.65667,12.75291 z m -15.66333,-22.93937 -0.18521,0.39687 -0.13229,0.15875 c -0.21167,0.58209 -0.74084,1.56105 -1.19063,2.8575 -0.34396,0.97896 -0.66146,1.98438 -0.92604,3.01625 -0.58208,2.16959 -0.97896,4.31271 -1.32292,6.61459 -1.71979,0.10583 -2.88396,-0.52917 -3.65125,1.16416 -2.46062,0.26459 -3.99521,1.87855 -5.21229,3.04271 -0.635,0.60854 -1.37583,1.34938 -1.905,2.14313 -1.13771,1.71979 0,5.715 -1.98437,6.24416 l -8.09625,0.0265 c -1.11125,-0.10583 -1.34938,-2.03729 -0.84667,-2.83104 -0.0794,-0.37042 0.0529,-0.82021 0.13229,-1.27 0.0265,-0.21167 0.0794,-0.42333 0.13229,-0.635 0.0794,-0.34396 0.0529,-0.29104 0.21167,-0.52917 -0.10583,-0.8202 1.45521,-5.34458 1.82562,-6.24416 0.74084,-1.87854 1.53459,-3.96875 2.6723,-5.31813 0.3175,-0.52916 1.50812,-1.53458 2.30187,-0.84666 0.55563,0.47625 1.00542,1.53458 1.37583,2.14312 0.42334,0.10583 0.4498,-0.0529 0.68792,-0.34396 1.16417,-1.53458 6.32354,-9.15458 6.6675,-9.36625 l 0.3175,-0.58208 c 0.23813,-0.87313 0.60854,-1.24354 0.68792,-2.40771 0.44979,-1.85208 -0.23813,-1.29646 0.18521,-2.75167 -0.74084,-0.42333 -0.39688,-1.37583 0.0529,-1.79916 1.61396,-1.56104 4.70959,-1.87854 6.985,-1.71979 1.64042,0.13229 3.38667,0.58208 4.25979,1.50812 0.58209,0.60854 0.29105,1.40229 0.23813,2.43417 -0.0265,0.60854 0.0265,2.27541 -0.18521,2.67229 -0.42333,0.29104 -1.11125,0.13229 -1.87854,0.84667 -0.29104,0.29104 -0.9525,1.21708 -1.21708,1.37583 z m 5.47687,-17.67417 c -0.10583,0.87313 -0.58208,4.65667 -0.89958,5.13292 l -0.9525,5.00062 c -0.37042,-0.1852 -0.60854,-0.58208 -1.19063,-0.87312 -1.48166,-0.79375 -3.4925,-1.00542 -5.18583,-0.9525 -2.80458,0.0529 -4.25979,0.68792 -6.13833,2.14312 l -1.13771,-5.18583 -1.03188,-4.97417 c -0.10583,-1.16416 -0.52916,-4.57729 0.10584,-5.3975 l -0.0529,-0.13229 c 0.0529,-0.39687 0.47625,-2.27541 0.66146,-2.67229 0.13229,-0.26458 0.0529,-0.10583 0.18521,-0.23812 0.0264,-0.4498 0.26458,-1.00542 0.635,-1.27 -0.0529,-0.635 1.4552,-2.16959 1.95791,-2.48709 0.60854,-0.39687 2.32834,-1.37583 3.22792,-1.16416 0.89958,-0.52917 3.41312,-0.0794 4.41854,0.23812 1.69333,0.55563 1.95792,0.87313 2.88396,2.01083 1.05833,1.03188 1.74625,3.28084 2.2225,5.15938 0.37042,2.30187 0.39687,3.20146 0.29104,5.66208 z m -10.74208,-13.54666 -0.47625,0.13229 -1.05834,0.39687 c 0.18521,-0.29104 0.82021,-0.87312 1.13771,-0.9525 0.10584,-0.13229 -0.0529,-0.0265 0.21167,-0.23812 0.0794,-0.0529 0.13229,-0.0794 0.23812,-0.10584 1.98438,-1.5875 5.45042,0.0794 5.97959,1.0848 -2.98979,-0.55563 -2.24896,-0.89959 -6.0325,-0.3175 z m 2.40771,-3.65125 c 0,0.47625 0.0794,0.9525 0,1.40229 h -0.50271 c -0.10584,-0.50271 -0.0265,-1.00542 -0.0529,-1.50813 -0.0265,-0.50271 -0.37042,-0.79375 0.21167,-0.87312 0.71437,-0.0794 0.34396,0.52916 0.34396,0.97896 z m -1.16417,-1.21709 c -0.23813,-1.79916 2.06375,-1.74625 1.71979,0 -0.29104,-0.10583 -0.44979,-0.3175 -0.92604,-0.29104 -0.50271,0.0529 -0.50271,0.29104 -0.79375,0.29104 z m -0.84667,2.30188 c -2.77812,1.08479 -3.96875,2.98979 -5.45041,5.13291 0,0 -0.1323,0.15875 -0.1323,0.15875 -0.55562,0.66146 -0.92604,1.53459 -1.24354,2.43417 -1.5875,4.49792 -1.00541,8.20208 -0.0265,12.75292 0.68792,3.175 2.77813,9.47208 1.34938,12.35604 -0.71438,1.45521 -3.33375,4.78896 -4.52438,6.50875 -0.37041,0.50271 -1.11125,1.905 -1.53458,2.11667 -0.60854,-0.66146 -1.21708,-1.56105 -2.69875,-1.34938 -3.75708,0.50271 -6.45583,10.37167 -7.24958,13.57313 -0.26459,1.11125 -0.55563,2.32833 -0.635,3.4925 -0.23813,2.69875 0.68791,2.61937 0.89958,3.175 0.21167,0.52916 -0.0529,1.00541 0.39688,1.64041 0.34395,0.44979 0.79375,0.55563 1.42875,0.58209 1.34937,0.0529 2.80458,0.0264 4.15395,0.0264 2.61938,-0.0264 4.18042,0.37042 4.70959,-1.50812 0.55562,-1.93146 1.34937,-0.23813 1.74625,-4.55083 0.15875,-1.93146 -0.13229,-1.93146 0.92604,-3.22792 0.71437,-0.87313 3.20146,-3.41313 4.70958,-3.62479 0.3175,0.76729 0,1.77271 0.635,2.48708 0.50271,0.58208 1.45521,0.71438 2.32834,0.76729 -0.0265,2.11667 -0.34396,4.94771 0.89958,6.42938 1.08479,1.32291 0.79375,0.0529 1.32292,2.32833 0.26458,1.05833 0.74083,1.64042 1.87854,1.77271 2.24896,0.264582 8.28146,0.238124 10.87437,0.105832 1.905,-0.105832 1.5875,-0.105832 2.54,-1.164162 0.74084,-0.0265 2.30188,0.0529 2.91042,-0.15875 1.11125,-0.37042 0.74083,-1.19063 1.03187,-1.98438 0.23813,-0.66146 0.84667,-0.47625 0.87313,-2.16958 0,-0.92604 -0.15875,-1.85209 -0.34396,-2.69875 -0.74083,-3.62479 -2.77812,-10.31875 -5.18583,-12.91167 -0.87313,-0.92604 -0.60854,-0.26458 -1.21709,-1.79917 -0.26458,-0.71437 -0.55562,-1.42875 -0.87312,-2.14312 -0.92604,-2.11667 -2.61938,-6.24417 -4.97417,-7.11729 0.0265,-1.69334 0.10584,-3.28084 0.42334,-4.86834 0.79375,-4.02166 2.16958,-10.16 1.905,-13.91708 -0.18521,-2.98979 -1.16417,-6.0325 -2.59292,-7.9375 -1.79917,-2.32833 -2.64583,-3.46604 -5.76792,-4.84187 -0.0265,-1.19063 0.0265,-0.68792 0.37042,-1.53459 0.66146,-1.56104 -0.39688,-3.4925 -2.24896,-3.43958 -1.11125,0.0265 -1.95792,0.92604 -2.19604,1.79917 -0.15875,0.55562 -0.13229,1.19062 0.10583,1.71979 0.39688,0.87312 0.47625,0.29104 0.47625,1.5875 z m 0,0"
         class="st1"
         inkscape:connector-curvature="0"
         style="clip-rule:evenodd;fill-rule:evenodd;stroke-width:0.26458332" />
      <path
         id="path4552"
         d="m -711.07527,-129.92978 c 0.3175,-0.0794 0.34396,1.77271 0.37042,2.19604 0.0794,0.87313 0.1852,1.5875 0.23812,2.46063 0.0794,1.61395 0.34396,2.77812 0.3175,4.23333 -8.49312,0.37042 -4.23333,4.20687 -9.97479,-0.71438 -0.82021,-0.68791 -2.01083,0.29105 -2.30188,0.84667 0.37042,0.13229 0.0794,0.3175 0.0794,0.74083 -0.0265,0.60855 -0.76729,3.04271 -0.9525,3.73063 -0.34396,1.24354 -0.66146,2.54 -0.92604,3.81 -0.26459,1.32292 -0.89959,4.445 -1.48167,5.58271 -0.37042,0.71437 -0.39687,1.11125 -1.45521,1.03187 -0.26458,-0.52916 -0.13229,-0.3175 -0.23812,-0.92604 -0.50271,0.79375 -0.26459,2.72521 0.84666,2.83104 l 8.09625,-0.0265 c 1.98438,-0.5027 0.82021,-4.49791 1.98438,-6.24416 0.52917,-0.79375 1.27,-1.53459 1.905,-2.14313 1.21708,-1.16416 2.75167,-2.77812 5.21229,-3.04271 0.76729,-1.69333 1.93146,-1.05833 3.65125,-1.16416 0.34396,-2.27542 0.76729,-4.41854 1.32292,-6.61459 0.26458,-1.03187 0.60854,-2.03729 0.92604,-3.01625 0.44979,-1.29645 0.97896,-2.27541 1.19062,-2.8575 -0.3175,-0.21166 -0.66145,-1.48166 -1.56104,-2.14312 -0.18521,-0.13229 -0.29104,-0.18521 -0.47625,-0.3175 -0.37041,-0.26458 -0.44979,-0.47625 -1.03187,-0.47625 -0.79375,1.21708 -0.23813,2.38125 -0.60854,3.25437 -0.26459,-0.5027 -0.18521,-3.94229 -0.0265,-4.65666 0.0265,-0.0794 0.0529,-0.18521 0.0529,-0.21167 l 0.18521,-0.66146 c 0.60854,-1.24354 1.5875,-0.0529 1.905,0.84667 0.0529,0.60854 1.98438,2.67229 1.87854,3.81 0.26459,-0.15875 0.92605,-1.08479 1.27,-1.37583 0.7673,-0.68792 1.45521,-0.55563 1.87855,-0.84667 0.21166,-0.39688 0.15875,-2.06375 0.1852,-2.67229 0.0529,-1.03188 0.34396,-1.82563 -0.23812,-2.43417 -0.89958,-0.92604 -2.61938,-1.37583 -4.25979,-1.50812 -2.24896,-0.15875 -5.37104,0.15875 -6.985,1.71979 -0.44979,0.44979 -0.58209,1.03187 -0.44979,1.71979 0.0794,1.34937 0.3175,0.97896 0.1852,2.83104 -0.13229,1.19063 -0.47625,1.53458 -0.71437,2.40771 z m 0,0"
         class="st2"
         inkscape:connector-curvature="0"
         style="clip-rule:evenodd;fill:#89b14e;fill-rule:evenodd;stroke-width:0.26458332" />
      <path
         id="path4554"
         d="m -700.17444,-130.45895 c 1.16417,0.0529 0.76729,4.33917 0.76729,5.55625 l -0.0794,12.48834 c -0.0265,2.24895 -0.42333,5.21229 -2.83104,5.10645 -0.29104,0 -0.68792,-0.34395 -0.9525,-0.52916 -1.48167,-0.97896 -1.08479,-6.53521 -0.84667,-8.12271 0.13229,-0.87313 0.15875,-2.09021 0.26458,-2.96333 0.10584,-0.97896 0.21167,-1.77271 0.37042,-2.72521 l 1.13771,-5.15938 c -0.68792,0.66146 -1.93146,6.42938 -2.19604,7.88459 -0.52917,2.88395 -0.9525,6.05895 -1.08479,9.0752 -0.0529,1.24355 -0.0794,3.54542 0.42333,4.49792 0.21167,0.39688 1.03187,1.08479 1.37583,1.16417 0.37042,0.0794 2.01084,0 2.51354,0 3.38667,0 6.77334,-0.0265 10.16,0 0.55563,0 0.635,0.0265 0.9525,-0.29104 0.68792,-0.66146 1.0848,-0.52917 1.03188,-2.69875 -0.0794,-3.3073 -1.74625,-9.39271 -2.72521,-12.43542 -0.97896,-3.06917 -2.77812,-8.01688 -4.89479,-10.29229 -0.635,-0.68792 -2.51354,-1.95792 -3.38667,-0.55563 z m 0,0"
         class="st2"
         inkscape:connector-curvature="0"
         style="clip-rule:evenodd;fill:#89b14e;fill-rule:evenodd;stroke-width:0.26458332" />
      <path
         id="path4556"
         d="m -707.66215,-150.6202 c 2.06375,-0.29104 2.75167,-0.3175 4.84188,-0.23812 l -0.13229,5.68854 c 1.66687,0.13229 2.43416,0.58208 3.70416,0.97896 l -0.5027,4.33916 c -1.19063,-0.29104 -1.77271,-0.58208 -3.25438,-0.76729 l 0.0794,-4.57729 c -1.77271,-0.10583 -2.59292,0 -4.31271,0.15875 z m 1.34938,-9.94833 0.58208,-0.0265 c 0,0.58208 0.0794,0.47625 -0.21166,0.82021 l 2.88395,0.0265 0.23813,3.46604 c -0.97896,-0.0794 -3.51896,-0.34396 -4.23333,0.18521 l 0.66145,-0.0265 c -0.13229,0.39687 -0.37041,0.52917 -0.44979,0.97896 -0.23812,1.37583 -0.84666,2.43416 -0.79375,3.46604 -0.0265,-0.74083 0.0265,-0.13229 -0.18521,-0.37042 0,0.3175 0.0265,0.58209 0.0529,0.89959 0.0265,0.47625 0.0794,0.39687 -0.18521,0.68791 0.0794,0.0529 0.10584,2.46063 0.10584,2.8575 0,0.68792 0.0529,0.89959 -0.0265,1.42875 -0.0794,0.55563 0.18521,0.84667 0.0265,1.34938 l 0.47625,-0.10584 0.42333,4.39209 c -0.34396,0.23812 -0.79375,0.15875 -1.08479,0.42333 h 0.29104 c -0.0529,0.84667 0.0265,-0.0265 -0.47625,1.03188 -0.50271,-0.0794 -1.40229,0.37041 -1.21708,-0.50271 l -0.4498,0.15875 -0.76729,-4.15396 c -0.71437,0.3175 -0.87312,0.87312 -1.40229,1.40229 l 1.13771,5.18583 c 1.87854,-1.4552 3.33375,-2.0902 6.13833,-2.14312 1.69334,-0.0265 3.70417,0.18521 5.18584,0.9525 0.58208,0.3175 0.8202,0.68792 1.19062,0.87312 l 0.9525,-5.00062 c -0.29104,-0.84667 -1.03187,-1.40229 -1.79917,-1.82563 l 0.60855,-5.31812 c 1.37583,0.52917 1.66687,1.93146 2.0902,2.01083 0.0794,-2.46062 0.0794,-3.33375 -0.26458,-5.68854 -0.60854,-0.44979 -0.76729,-1.11125 -1.56104,-1.45521 l -0.3175,5.02709 c -1.16417,-0.50271 -2.61938,-1.29646 -4.15396,-1.27 v -5.34459 c 1.56104,-0.13229 3.28083,1.08479 4.39208,1.45521 -0.0794,-1.42875 -0.44979,-2.35479 -0.60854,-3.57187 -0.92604,-1.11125 -1.21708,-1.45521 -2.88396,-2.01084 -0.9525,-0.34396 -3.46604,-0.79375 -4.36562,-0.26458 z m 0,0"
         class="st4"
         inkscape:connector-curvature="0"
         style="clip-rule:evenodd;fill:#dcdcdc;fill-rule:evenodd;stroke-width:0.26458332" />
      <path
         id="path4558"
         d="m -701.57673,-128.55395 c -0.0265,0.52917 -0.52917,1.77271 -0.66146,2.38125 -0.87312,3.38667 -0.92604,4.31271 -1.32291,7.85813 -0.23813,2.14312 -1.03188,10.34521 1.53458,10.05416 1.08479,-0.13229 1.00542,-0.74083 1.27,-1.74625 0.76729,-2.83104 0.76729,-5.23875 0.79375,-8.38729 0.0265,-2.03729 0.10583,-4.07458 0.10583,-6.00604 0,-1.50812 0.42334,-4.57729 -0.29104,-5.63562 l -0.39687,-0.0265 c -0.3175,0.21166 -0.9525,1.05833 -1.03188,1.50812 z m 0,0"
         class="st3"
         inkscape:connector-curvature="0"
         style="clip-rule:evenodd;fill:#dbff7e;fill-rule:evenodd;stroke-width:0.26458332" />
      <path
         id="path4560"
         d="m -707.23881,-145.03749 c 1.71979,-0.15875 2.54,-0.26458 4.31271,-0.15875 l -0.0794,4.57729 c 1.45521,0.18521 2.06375,0.50271 3.25438,0.76729 l 0.5027,-4.33916 c -1.29645,-0.39688 -2.03729,-0.84667 -3.70416,-0.97896 l 0.13229,-5.68854 c -2.09021,-0.0794 -2.77813,-0.0265 -4.84188,0.23812 z m 0,0"
         class="st2"
         inkscape:connector-curvature="0"
         style="clip-rule:evenodd;fill:#89b14e;fill-rule:evenodd;stroke-width:0.26458332" />
      <path
         id="path4562"
         d="m -711.39277,-129.3477 c 0.15875,-0.0529 0.26458,-0.3175 0.23812,0.76729 -0.0265,1.13771 -0.76729,2.19605 -1.42875,3.04271 l -1.05833,1.27 c -0.52917,0.42334 -0.34396,0.39688 -0.87312,0.76729 -0.3175,0.23813 -0.0529,0 -0.29105,0.26459 -1.24354,1.34937 -0.52916,0.58208 -1.53458,1.85208 l -0.9525,1.27 c -0.34396,0.37042 -0.79375,0.92604 -1.42875,0.79375 2.51354,1.11125 6.24417,-0.23812 6.64104,-0.92604 0.42334,-0.42333 1.40229,-0.68792 1.93146,-0.76729 0.0529,-1.45521 -0.23812,-2.72521 -0.3175,-4.31271 -0.0529,-0.84667 -0.13229,-1.5875 -0.23812,-2.46063 -0.0529,-0.42333 -0.0529,-2.27541 -0.37042,-2.19604 z m 0,0"
         class="st5"
         inkscape:connector-curvature="0"
         style="clip-rule:evenodd;fill:#aada61;fill-rule:evenodd;stroke-width:0.26458332" />
      <path
         id="path4564"
         d="m -691.07277,-101.53999 c 0.3175,-0.39687 0.37042,-1.50812 0.34396,-2.14312 l -12.96459,0.0264 c -0.0264,0.1323 0.21167,1.27 0.29105,1.53459 0.1852,0.71437 0.5027,0.60854 1.29645,0.635 1.19063,0.0794 2.46063,0.10583 3.67771,0.10583 1.32292,0.0529 6.45584,0.13229 7.35542,-0.15875 z m 0,0"
         class="st6"
         inkscape:connector-curvature="0"
         style="clip-rule:evenodd;fill:#949ca3;fill-rule:evenodd;stroke-width:0.26458332" />
      <path
         id="path4566"
         d="m -696.76131,-153.1602 c -0.50271,-1.87854 -1.16417,-4.1275 -2.2225,-5.15937 0.15875,1.21708 0.55562,2.16958 0.60854,3.57187 -1.11125,-0.37041 -2.83104,-1.5875 -4.39208,-1.45521 v 5.34459 c 1.53458,-0.0265 2.96333,0.76729 4.15395,1.27 l 0.3175,-5.02709 c 0.7673,0.37042 0.9525,1.00542 1.53459,1.45521 z m 0,0"
         class="st2"
         inkscape:connector-curvature="0"
         style="clip-rule:evenodd;fill:#89b14e;fill-rule:evenodd;stroke-width:0.26458332" />
      <path
         id="path4568"
         d="m -700.54485,-130.06207 0.39687,0.0265 c 0.71438,1.03187 0.29104,4.1275 0.29104,5.63562 -0.0265,1.93146 -0.10583,3.96875 -0.10583,6.00604 -0.0265,3.14854 -0.0265,5.55625 -0.79375,8.38729 -0.26458,1.00542 -0.18521,1.61396 -1.27,1.74625 -2.56646,0.29105 -1.77271,-7.91104 -1.53458,-10.05416 0.39687,-3.54542 0.44979,-4.47146 1.32291,-7.85813 0.15875,-0.58208 0.635,-1.85208 0.66146,-2.38125 -0.34396,0.29104 -0.76729,1.24354 -0.76729,1.77271 l -1.13771,5.15938 c -0.15875,0.9525 -0.26458,1.74625 -0.37042,2.7252 -0.0794,0.84667 -0.13229,2.06375 -0.26458,2.96334 -0.23812,1.5875 -0.635,7.14375 0.84667,8.12271 0.29104,0.1852 0.66146,0.52916 0.9525,0.52916 2.40771,0.10584 2.80458,-2.83104 2.83104,-5.10646 l 0.0794,-12.48833 c 0,-1.21708 0.39688,-5.50333 -0.76729,-5.55625 z m 0,0"
         class="st5"
         inkscape:connector-curvature="0"
         style="clip-rule:evenodd;fill:#aada61;fill-rule:evenodd;stroke-width:0.26458332" />
      <path
         id="path4570"
         d="m -711.73673,-148.60936 c -0.21167,0.37041 -0.42333,0.44979 -0.68792,0.8202 -0.26458,0.37042 -0.34395,0.87313 -0.58208,0.635 l 1.03188,4.97417 c 0.52916,-0.52917 0.68791,-1.08479 1.40229,-1.40229 l 0.76729,4.15396 0.44979,-0.15875 c 0.26458,-0.21167 1.00542,-0.50271 1.40229,-0.52917 0.29104,-0.29104 0.74084,-0.21167 1.08479,-0.42333 l -0.42333,-4.39209 -0.47625,0.10584 c -1.13771,0.18521 -1.95792,0.84666 -2.83104,1.21708 l -0.82021,-4.94771 c -0.15875,-0.10583 0.0794,-0.21166 -0.3175,-0.0529 z m 0,0"
         class="st2"
         inkscape:connector-curvature="0"
         style="clip-rule:evenodd;fill:#89b14e;fill-rule:evenodd;stroke-width:0.26458332" />
      <path
         id="path4572"
         d="m -712.95381,-152.71041 0.0529,0.1323 c 0.0794,0.71437 -0.10583,0.44979 0.18521,1.16416 0.10584,0.29104 0.21167,0.58209 0.3175,0.9525 0.10584,0.3175 0.52917,1.71979 0.66146,1.85209 0.39688,-0.15875 0.15875,-0.0529 0.29104,0.0265 l 0.82021,4.94771 c 0.87313,-0.37041 1.69333,-1.00541 2.83104,-1.21708 0.15875,-0.50271 -0.10583,-0.79375 -0.0265,-1.34938 0.0794,-0.5027 0.0265,-0.74083 0.0265,-1.42875 0,-0.39687 -0.0265,-2.80458 -0.10583,-2.8575 -1.19063,-0.0794 -2.77813,1.19063 -3.59833,1.61396 l -0.37042,-4.65666 c -0.0265,-0.52917 0.0265,-0.15875 -0.18521,-0.26459 z m 0,0"
         class="st7"
         inkscape:connector-curvature="0"
         style="clip-rule:evenodd;fill:#fefefe;fill-rule:evenodd;stroke-width:0.26458332" />
      <path
         id="path4574"
         d="m -689.22069,-104.13291 c 2.59292,0.0265 3.36021,0.29105 2.88396,-2.69875 -0.44979,-3.01625 -3.01625,-11.53583 -4.68312,-12.75291 0.15875,1.03187 0.74083,2.59291 1.03187,3.73062 0.66146,2.46063 1.93146,7.69938 1.50813,10.16 -0.1323,0.97896 -0.60855,1.16417 -0.74084,1.56104 z m 0,0"
         class="st2"
         inkscape:connector-curvature="0"
         style="clip-rule:evenodd;fill:#89b14e;fill-rule:evenodd;stroke-width:0.26458332" />
      <path
         id="path4576"
         d="m -711.47215,-156.91728 c -0.3175,0.84667 -0.39687,2.06375 -0.42333,3.01625 0.26458,-0.10583 0.92604,-0.66146 1.56104,-1.03188 0.52917,-0.29104 1.27,-0.68791 1.87854,-0.8202 l 0.58209,-0.18521 c -0.23813,0.82021 0.0794,2.91041 0.10583,3.86291 0.21167,0.23813 0.15875,-0.34395 0.18521,0.37042 -0.0529,-1.00542 0.55562,-2.09021 0.79375,-3.46604 0.0794,-0.44979 0.3175,-0.58208 0.44979,-0.97896 l -0.66146,0.0265 -0.82021,0.0794 -0.0264,-1.37583 c 0.0264,-0.635 0,-1.56104 0.26458,-2.06375 l 0.39687,-0.10583 1.29646,-0.21167 c 0.29104,-0.34396 0.21167,-0.23812 0.21167,-0.82021 l -0.58208,0.0265 c -0.89959,-0.21167 -2.61938,0.76729 -3.22792,1.16417 -0.55563,0.37041 -2.03729,1.905 -1.98438,2.51354 z m 0,0"
         class="st7"
         inkscape:connector-curvature="0"
         style="clip-rule:evenodd;fill:#fefefe;fill-rule:evenodd;stroke-width:0.26458332" />
      <path
         id="path4578"
         d="m -726.95027,-109.3452 c -0.0529,0.60854 -0.29104,1.79917 0.10583,2.14313 0.52917,0.3175 0.92604,-0.66146 1.05834,-1.03188 0.23812,-0.635 0.21166,-1.00541 0.52916,-1.69333 l 2.48709,-9.36625 c 0.0529,-0.13229 0.0794,-0.34396 0.13229,-0.47625 l 0.26458,-0.42333 c 0,-0.4498 0.29104,-0.60855 -0.0794,-0.74084 -1.13771,1.32292 -1.95792,3.43959 -2.6723,5.31813 -0.34395,0.92604 -1.905,5.42396 -1.82562,6.27062 z m 0,0"
         class="st3"
         inkscape:connector-curvature="0"
         style="clip-rule:evenodd;fill:#dbff7e;fill-rule:evenodd;stroke-width:0.26458332" />
      <path
         id="path4580"
         d="m -708.48235,-155.72666 c -0.3175,0.55563 -0.15875,0.68792 -0.60855,1.11125 -0.68791,0.635 0.23813,0.10584 -0.92604,1.00542 -0.89958,0.68792 -0.79375,0.60854 -1.87854,0.0794 l 0.37042,4.65666 c 0.82021,-0.42333 2.43416,-1.69333 3.59833,-1.61396 0.23813,-0.26458 0.21167,-0.21166 0.18521,-0.68791 -0.0265,-0.3175 -0.0529,-0.58209 -0.0529,-0.89959 -0.0265,-0.9525 -0.34396,-3.01625 -0.10583,-3.86291 z m 0,0"
         class="st2"
         inkscape:connector-curvature="0"
         style="clip-rule:evenodd;fill:#89b14e;fill-rule:evenodd;stroke-width:0.26458332" />
      <path
         id="path4582"
         d="m -707.21235,-159.58957 c -0.0265,0.52916 -0.10584,0.74083 -0.23813,1.16416 -0.21167,0.71438 -0.0529,0.84667 -0.42333,1.03188 l 0.0265,1.37583 0.8202,-0.0794 c 0.71438,-0.52917 3.25438,-0.23813 4.23334,-0.18521 l -0.23813,-3.46604 -2.88396,-0.0265 z m 0,0"
         class="st2"
         inkscape:connector-curvature="0"
         style="clip-rule:evenodd;fill:#89b14e;fill-rule:evenodd;stroke-width:0.26458332" />
      <path
         id="path4584"
         d="m -697.39631,-142.31228 c 0.3175,-0.47625 0.79375,-4.25979 0.89958,-5.13292 -0.44979,-0.0794 -0.71437,-1.45521 -2.09021,-2.01083 l -0.60854,5.31812 c 0.76729,0.42334 1.50813,0.97896 1.79917,1.82563 z m 0,0"
         class="st2"
         inkscape:connector-curvature="0"
         style="clip-rule:evenodd;fill:#89b14e;fill-rule:evenodd;stroke-width:0.26458332" />
      <path
         id="path4586"
         d="m -718.74819,-119.61103 0.0265,0.34396 c 0.66146,0.13229 1.11125,-0.42334 1.42875,-0.79375 l 0.9525,-1.27 c 1.00542,-1.27 0.29104,-0.50271 1.53458,-1.85209 0.23813,-0.26458 -0.0265,-0.0529 0.29105,-0.26458 0.52916,-0.37042 0.34395,-0.34396 0.87312,-0.76729 l 1.05833,-1.27 c 0.66146,-0.84667 1.4023,-1.905 1.42875,-3.04271 0.0265,-1.08479 -0.0794,-0.82021 -0.23812,-0.76729 -0.37042,0.21167 -5.50333,7.85812 -6.6675,9.36625 -0.23813,0.26458 -0.26458,0.42333 -0.68792,0.3175 z m 0,0"
         class="st3"
         inkscape:connector-curvature="0"
         style="clip-rule:evenodd;fill:#dbff7e;fill-rule:evenodd;stroke-width:0.26458332" />
      <path
         id="path4588"
         d="m -726.5534,-102.49249 c 1.34938,0.13229 3.12209,0.0794 4.52438,0.0529 3.12208,-0.0265 3.22792,0.21166 3.33375,-1.13771 l -7.96396,0.0265 z m 0,0"
         class="st6"
         inkscape:connector-curvature="0"
         style="clip-rule:evenodd;fill:#949ca3;fill-rule:evenodd;stroke-width:0.26458332" />
      <path
         id="path4590"
         d="m -726.95027,-109.3452 c -0.18521,0.23813 -0.13229,0.18521 -0.21167,0.52917 -0.0529,0.21167 -0.0794,0.42333 -0.13229,0.635 -0.0794,0.42333 -0.21167,0.87312 -0.13229,1.27 0.10583,0.60854 -0.0265,0.39687 0.23812,0.92604 1.05834,0.0794 1.0848,-0.29104 1.45521,-1.03187 0.58209,-1.13771 1.21709,-4.2598 1.48167,-5.58271 0.23812,-1.27 0.58208,-2.56646 0.92604,-3.81 0.18521,-0.68792 0.9525,-3.12209 0.9525,-3.73063 l -0.26458,0.42334 c -0.0529,0.10583 -0.0794,0.3175 -0.13229,0.47625 l -2.48709,9.31333 c -0.29104,0.68792 -0.29104,1.05833 -0.52916,1.69333 -0.1323,0.37042 -0.55563,1.34938 -1.05834,1.03188 -0.39687,-0.34396 -0.15875,-1.56104 -0.10583,-2.14313 z m 0,0"
         class="st5"
         inkscape:connector-curvature="0"
         style="clip-rule:evenodd;fill:#aada61;fill-rule:evenodd;stroke-width:0.26458332" />
      <path
         id="path4592"
         d="m -702.15881,-129.3477 0.18521,-0.39687 c 0.10583,-1.13771 -1.79917,-3.20146 -1.87855,-3.81 -0.74083,-0.42334 -0.3175,-1.08479 -1.4552,-1.00542 -0.39688,0.55563 -0.42334,0.74083 -0.39688,1.66688 0.58208,0.15875 1.74625,1.00541 2.19604,1.37583 l 0.13229,0.13229 c 0.74084,0.9525 0.87313,1.79917 1.21709,2.03729 z m 0,0"
         class="st3"
         inkscape:connector-curvature="0"
         style="clip-rule:evenodd;fill:#dbff7e;fill-rule:evenodd;stroke-width:0.26458332" />
      <path
         id="path4594"
         d="m -708.0061,-116.14499 c -0.15875,0.44979 -0.0265,1.00542 0,1.61396 0.0264,0.44979 0.26458,1.03187 0.42333,1.29646 0.0265,0 0.87312,0.47625 1.40229,-0.34396 0,-0.0265 0.0265,-0.0529 0.0529,-0.0794 l 0.26458,-2.46062 c -0.87312,-0.26458 -1.34937,-0.18521 -2.14312,-0.0265 z m 0,0"
         class="st8"
         inkscape:connector-curvature="0"
         style="clip-rule:evenodd;fill:#b3bdc5;fill-rule:evenodd;stroke-width:0.26458332" />
      <path
         id="path4596"
         d="m -707.1859,-161.75916 c 0.50271,-0.0529 0.1323,-0.0264 0.26459,0.10584 l -0.0794,0.42333 c -0.0265,0.0265 -0.0265,0.0265 -0.0529,0.0529 -0.0265,0.0265 -0.0529,0.0265 -0.0529,0.0529 -0.0265,0.0265 -0.0529,0.0529 -0.0794,0.0529 -0.0265,0.0265 -0.0529,0.0265 -0.0794,0.0529 3.78354,-0.58209 3.04271,-0.21167 6.0325,0.34396 -0.50271,-1.00542 -3.96875,-2.69875 -5.95313,-1.0848 z m 0,0"
         class="st2"
         inkscape:connector-curvature="0"
         style="clip-rule:evenodd;fill:#89b14e;fill-rule:evenodd;stroke-width:0.26458332" />
      <path
         id="path4598"
         d="m -712.10715,-155.64728 c -0.10583,0.97896 0.0529,1.00542 0.0529,1.82562 0.21167,0.10584 0.13229,-0.23812 0.18521,0.26459 1.08479,0.52916 0.9525,0.60854 1.87854,-0.0794 1.19063,-0.89958 0.26458,-0.37041 0.92604,-1.00541 0.44979,-0.42334 0.26459,-0.55563 0.60854,-1.11125 -0.60854,0.13229 -1.34937,0.52916 -1.87854,0.8202 -0.635,0.34396 -1.27,0.92605 -1.56104,1.03188 0.0265,-0.9525 0.10583,-2.16958 0.42333,-3.01625 -0.37041,0.26458 -0.635,0.82021 -0.635,1.27 z m 0,0"
         class="st5"
         inkscape:connector-curvature="0"
         style="clip-rule:evenodd;fill:#aada61;fill-rule:evenodd;stroke-width:0.26458332" />
      <path
         id="path4600"
         d="m -713.03319,-147.18061 c 0.26459,0.23812 0.3175,-0.26459 0.58209,-0.635 0.26458,-0.37042 0.47625,-0.4498 0.68791,-0.82021 -0.13229,-0.13229 -0.55562,-1.53459 -0.66146,-1.85209 -0.10583,-0.37041 -0.21166,-0.66145 -0.3175,-0.9525 -0.26458,-0.68791 -0.10583,-0.44979 -0.1852,-1.16416 -0.635,0.84666 -0.18521,4.25979 -0.10584,5.42396 z m 0,0"
         class="st4"
         inkscape:connector-curvature="0"
         style="clip-rule:evenodd;fill:#dcdcdc;fill-rule:evenodd;stroke-width:0.26458332" />
      <path
         id="path4602"
         d="m -702.2911,-129.18895 0.13229,-0.15875 c -0.34396,-0.23812 -0.47625,-1.08479 -1.21709,-2.01083 l -0.13229,-0.13229 c -0.42333,-0.39688 -1.61396,-1.21709 -2.19604,-1.37584 -0.0265,-0.92604 0,-1.11125 0.39688,-1.66687 1.1377,-0.0794 0.74083,0.58208 1.4552,1.00542 -0.3175,-0.89959 -1.29645,-2.06375 -1.905,-0.84667 l -0.1852,0.66146 c 0,0.0529 -0.0265,0.13229 -0.0529,0.21166 -0.15875,0.71438 -0.23813,4.15396 0.0265,4.65667 0.34396,-0.87312 -0.21167,-2.03729 0.60854,-3.25437 0.60854,0 0.68792,0.21166 1.03187,0.47625 0.18521,0.13229 0.29105,0.1852 0.47625,0.3175 0.89959,0.60854 1.24355,1.87854 1.56105,2.11666 z m 0,0"
         class="st5"
         inkscape:connector-curvature="0"
         style="clip-rule:evenodd;fill:#aada61;fill-rule:evenodd;stroke-width:0.26458332" />
      <path
         id="path4604"
         d="m -706.12756,-113.65791 c -0.0265,0.0265 -0.0265,0.0529 -0.0529,0.0794 -0.52917,0.82021 -1.37583,0.37042 -1.40229,0.34396 -0.18521,-0.26459 -0.39688,-0.87313 -0.42333,-1.29646 -0.0265,-0.60854 -0.15875,-1.16417 0,-1.61396 -0.42334,0.10583 -0.50271,0.15875 -0.74084,0.34396 0.21167,1.03187 0.21167,2.09021 0.39688,3.14854 l 2.14312,-0.3175 z m 0,0"
         class="st6"
         inkscape:connector-curvature="0"
         style="clip-rule:evenodd;fill:#949ca3;fill-rule:evenodd;stroke-width:0.26458332" />
      <path
         id="path4606"
         d="m -689.96152,-102.59832 2.83104,-0.0794 0.0529,-0.92604 -2.77813,0.0529 z m 0,0"
         class="st6"
         inkscape:connector-curvature="0"
         style="clip-rule:evenodd;fill:#949ca3;fill-rule:evenodd;stroke-width:0.26458332" />
      <path
         id="path4608"
         d="m -705.99527,-165.8602 c 0.3175,0 0.3175,-0.23812 0.82021,-0.29104 0.47625,-0.0265 0.635,0.18521 0.92604,0.29104 0.3175,-1.74625 -2.01083,-1.79916 -1.74625,0 z m 0,0"
         class="st6"
         inkscape:connector-curvature="0"
         style="clip-rule:evenodd;fill:#949ca3;fill-rule:evenodd;stroke-width:0.26458332" />
      <path
         id="path4610"
         d="m -705.33381,-163.24082 h 0.50271 c 0.10583,-0.44979 0,-0.9525 0,-1.40229 0,-0.4498 0.37041,-1.05834 -0.34396,-0.9525 -0.58209,0.0794 -0.26459,0.34395 -0.21167,0.87312 0,0.47625 -0.0529,0.97896 0.0529,1.48167 z m 0,0"
         class="st2"
         inkscape:connector-curvature="0"
         style="clip-rule:evenodd;fill:#89b14e;fill-rule:evenodd;stroke-width:0.26458332" />
      <path
         id="path4612"
         d="m -709.38194,-139.61353 c -0.18521,0.89958 0.68792,0.42333 1.21709,0.50271 0.5027,-1.05834 0.44979,-0.15875 0.47625,-1.03188 h -0.29105 c -0.39687,0.0265 -1.16416,0.3175 -1.40229,0.52917 z m 0,0"
         class="st7"
         inkscape:connector-curvature="0"
         style="clip-rule:evenodd;fill:#fefefe;fill-rule:evenodd;stroke-width:0.26458332" />
      <path
         id="path4614"
         d="m -712.95381,-152.71041 0.89958,-1.08479 c 0,-0.82021 -0.15875,-0.84666 -0.0529,-1.82562 -0.13229,0.13229 -0.0529,-0.0265 -0.1852,0.23812 -0.21167,0.39688 -0.60855,2.27542 -0.66146,2.67229 z m 0,0"
         class="st2"
         inkscape:connector-curvature="0"
         style="clip-rule:evenodd;fill:#89b14e;fill-rule:evenodd;stroke-width:0.26458332" />
      <path
         id="path4616"
         d="m -707.87381,-157.39353 c 0.37041,-0.15875 0.18521,-0.3175 0.42333,-1.03188 0.13229,-0.42333 0.23813,-0.635 0.23813,-1.16416 l -0.39688,0.10583 c -0.26458,0.52917 -0.23812,1.45521 -0.26458,2.09021 z m 0,0"
         class="st5"
         inkscape:connector-curvature="0"
         style="clip-rule:evenodd;fill:#aada61;fill-rule:evenodd;stroke-width:0.26458332" />
      <path
         id="path4618"
         d="m -707.71506,-160.88603 0.13229,-0.13229 c 0.0529,-0.0794 0.0529,-0.0529 0.10583,-0.13229 0.0794,-0.1323 0.0265,-0.0529 0.0529,-0.26459 h -0.21167 c -0.34396,0.0794 -0.97896,0.635 -1.13771,0.9525 z m 0,0"
         class="st3"
         inkscape:connector-curvature="0"
         style="clip-rule:evenodd;fill:#dbff7e;fill-rule:evenodd;stroke-width:0.26458332" />
      <path
         id="path4620"
         d="m -707.63569,-161.4152 h 0.21167 c -0.0265,0.21167 0.0265,0.13229 -0.0529,0.26459 -0.0529,0.0794 -0.0529,0.0529 -0.10583,0.13229 l -0.13229,0.13229 0.47625,-0.13229 c 0.0265,-0.0265 0.0529,-0.0529 0.0794,-0.0529 0.0265,-0.0265 0.0529,-0.0265 0.0794,-0.0529 0.0265,-0.0265 0.0529,-0.0265 0.0529,-0.0529 0.0265,-0.0265 0.0265,-0.0265 0.0529,-0.0529 l 0.0794,-0.42333 c -0.1323,-0.15875 0.23812,-0.15875 -0.26459,-0.10584 -0.10583,0.0529 -0.15875,0.0529 -0.23812,0.10584 -0.29104,0.21166 -0.13229,0.10583 -0.23813,0.23812 z m 0,0"
         class="st5"
         inkscape:connector-curvature="0"
         style="clip-rule:evenodd;fill:#aada61;fill-rule:evenodd;stroke-width:0.26458332" />
    </g>
  </g>
  <style
     type="text/css"
     id="style4518">
	.st0{clip-path:url(#SVGID_2_);fill:none;stroke:#000000;stroke-width:6.3494;}
	.st1{fill-rule:evenodd;clip-rule:evenodd;}
	.st2{fill-rule:evenodd;clip-rule:evenodd;fill:#89B14E;}
	.st3{fill-rule:evenodd;clip-rule:evenodd;fill:#DBFF7E;}
	.st4{fill-rule:evenodd;clip-rule:evenodd;fill:#DCDCDC;}
	.st5{fill-rule:evenodd;clip-rule:evenodd;fill:#AADA61;}
	.st6{fill-rule:evenodd;clip-rule:evenodd;fill:#949CA3;}
	.st7{fill-rule:evenodd;clip-rule:evenodd;fill:#FEFEFE;}
	.st8{fill-rule:evenodd;clip-rule:evenodd;fill:#B3BDC5;}
</style>
</svg>
