<?xml version="1.0" encoding="utf-8"?>
<!-- Generator: Adobe Illustrator 22.0.1, SVG Export Plug-In . SVG Version: 6.00 Build 0)  -->
<svg version="1.1" id="Layer_1" xmlns="http://www.w3.org/2000/svg" xmlns:xlink="http://www.w3.org/1999/xlink" x="0px" y="0px"
	 viewBox="0 0 288.6 362.8" style="enable-background:new 0 0 288.6 362.8;" xml:space="preserve">
<style type="text/css">
	.st0{clip-path:url(#SVGID_2_);fill:none;stroke:#000000;stroke-width:6.3494;}
	.st1{fill-rule:evenodd;clip-rule:evenodd;}
	.st2{fill-rule:evenodd;clip-rule:evenodd;fill:#89B14E;}
	.st3{fill-rule:evenodd;clip-rule:evenodd;fill:#DBFF7E;}
	.st4{fill-rule:evenodd;clip-rule:evenodd;fill:#DCDCDC;}
	.st5{fill-rule:evenodd;clip-rule:evenodd;fill:#AADA61;}
	.st6{fill-rule:evenodd;clip-rule:evenodd;fill:#949CA3;}
	.st7{fill-rule:evenodd;clip-rule:evenodd;fill:#FEFEFE;}
	.st8{fill-rule:evenodd;clip-rule:evenodd;fill:#B3BDC5;}
</style>
<g>
	<g>
		<defs>
			<rect id="SVGID_1_" x="-1" y="-1" width="292.8" height="363.8"/>
		</defs>
		<clipPath id="SVGID_2_">
			<use xlink:href="#SVGID_1_"  style="overflow:visible;"/>
		</clipPath>
		<path class="st0" d="M2.2,11.8v338.1c0,5.9,2.9,8.9,8.9,8.9h268c5.9,0,8.9-3,8.9-8.9V11.8c0-5.9-3-8.9-8.9-8.9H11
			C5.1,2.9,2.2,5.9,2.2,11.8L2.2,11.8z M2.2,11.8"/>
	</g>
	<path class="st1" d="M221.6,286c0.9-0.5,1.9-0.8,3-0.8h30.1l11.7-1.7c1.9-0.3,3.7,0.3,5.1,1.6c1.4,1.3,2.1,3.1,1.9,5l-1.3,14.3
		c-0.3,3.1-2.8,5.4-5.9,5.6c0,0,0,0,0,0.1v12.5c3.3,0.1,5.9,2.8,5.9,6.1v12.5c0,3.4-2.8,6.1-6.1,6.1h-41.4c-1.1,0-2.1-0.3-3-0.8
		c-0.9,0.5-1.9,0.8-3,0.8h-41.4c-3.4,0-6.1-2.8-6.1-6.1v-0.4c-0.8,0.7-1.6,1.4-2.6,2.1c-6.1,4.2-14.1,5.3-21.4,5.3
		c-8.5,0-17.1-1.1-25-4.2c-2.6-1-4.2-3.7-3.8-6.4c-0.7,0.8-1.5,1.7-2.4,2.4c-6.1,5.3-13.2,8.1-21.3,8.1c-5.8,0-11.4-1.6-16.4-4.5
		c-5.1-2.9-9.1-7.1-11.4-12.5c-0.4-1-0.8-1.9-1.1-3c-1,2-3.1,3.3-5.4,3.3h-7.9v9.7c0,3.4-2.8,6.1-6.1,6.1H24c-1.7,0-3.1-0.6-4.3-1.8
		c-1.2-1.2-1.8-2.7-1.8-4.3l0.1-37.1l-1.7-13.3c-0.3-1.9,0.3-3.7,1.7-5.1c1.4-1.4,3.1-2,5-1.8l11.9,1.3H65c0.8,0,1.6,0.2,2.4,0.5
		c0.7-0.3,1.5-0.5,2.4-0.5h22.1c1,0,1.9,0.2,2.7,0.6c0.8-0.4,1.7-0.6,2.7-0.6h22.1c3.4,0,6.1,2.7,6.1,6.1v1.4c1-1.1,2.1-2.1,3.4-3
		c6.1-4.2,14.1-5.3,21.3-5.3c7.4,0,14.8,1.1,21.8,3.6c1.1-1.7,3-2.8,5.1-2.8h41.4C219.7,285.2,220.7,285.5,221.6,286L221.6,286z
		 M221.6,286"/>
	<path class="st2" d="M24,341.2l0.1-37.5L22.4,290l12.2,1.3H65v12.5H46.1v9.1h14.1v12.5H46.1v15.8H24z M119.3,291.3v22.6
		c0,9.9-2.5,17-7.6,21.4c-5,4.4-10.8,6.6-17.3,6.6c-4.7,0-9.1-1.2-13.3-3.7c-4.2-2.4-7.2-5.7-8.9-9.7c-1.8-4-2.6-9.2-2.6-15.7v-21.6
		h22.1v23.1c0,2.5,0.2,4.1,0.6,4.7c0.4,0.7,1.1,1,2,1c1.2,0,2-0.6,2.3-1.8c0.4-1.6,0.5-3.6,0.5-6v-21H119.3z M170.2,293.9l-5.5,15.7
		c-3.6-4.9-7.7-7.3-12.4-7.3c-2.6,0-3.9,1-3.9,2.9c0,0.6,0.4,1.2,1.2,1.9c0.8,0.6,3,1.6,6.4,3c3.8,1.5,6.7,2.9,8.8,4.1
		c2.1,1.2,3.6,2.8,4.6,4.7c1,1.9,1.5,4.1,1.5,6.7c0,5.3-2,9.4-6.1,12.2c-4.1,2.8-10,4.2-17.9,4.2c-8.8,0-16.4-1.3-22.8-3.8l5.4-16.7
		c1.6,2.4,3.5,4.4,5.8,5.8c2.3,1.4,4.5,2.2,6.7,2.2c1,0,1.9-0.3,2.6-0.8c0.7-0.5,1.1-1.2,1.1-2c0-0.7-0.3-1.4-1-2.1
		c-0.7-0.7-2.5-1.6-5.4-2.8c-2.7-1.1-4.9-2.1-6.6-3.1c-1.7-1-3.3-2.5-4.5-4.3c-1.3-1.9-1.9-4.2-1.9-7.1c0-5.5,2-9.7,6-12.5
		c4-2.8,10-4.2,17.8-4.2C157.4,290.5,164.1,291.6,170.2,293.9L170.2,293.9z M218.6,328.7v12.5h-41.4v-49.9h41.4v12.5h-19.3v6.2h13.5
		v12.5h-13.5v6.1H218.6z M266,328.7v12.5h-41.4v-49.9h30.5l12.2-1.8l-1.3,14.3h-19.3v6.2h13.5v12.5h-13.5v6.1H266z M266,328.7"/>
	<path class="st3" d="M22.9,290l2.8,0.3c0.2,0,0.4,0.2,0.4,0.4l1.5,12.6l-0.1,37.4c0,0.2-0.2,0.4-0.4,0.4h-2.7
		c-0.2,0-0.4-0.2-0.4-0.4l0.1-37.1l-1.7-13.2C22.4,290.2,22.7,290,22.9,290L22.9,290z M22.9,290"/>
	<path class="st3" d="M70.2,291.3h2.6c0.2,0,0.4,0.2,0.4,0.4l-0.1,37.8c0,0.2-0.3,0.5-0.4,0.3c-0.5-0.9-1.3-2.9-1.8-4.8
		c-0.5-2-0.7-4-0.9-5c-0.3-1.9-0.4-6.4-0.4-6.7l0.1-21.6C69.8,291.5,69.9,291.3,70.2,291.3L70.2,291.3z M70.2,291.3"/>
	<path class="st3" d="M177.2,292l-0.1,48.4c0,0.5,0.2,0.7,0.7,0.7h2.1c0.5,0,0.7-0.2,0.7-0.7l0.1-48.4c0-0.5-0.2-0.7-0.7-0.7h-2.1
		C177.5,291.3,177.2,291.5,177.2,292L177.2,292z M177.2,292"/>
	<path class="st3" d="M97.7,291.3h2.6c0.2,0,0.4,0.2,0.4,0.4l0,22.7c0,1.3-0.2,4.4-1.3,5.1c-0.6,0.4-3.2,0.5-4.4,0.5
		c2.5-0.2,2.2-5.6,2.2-6.7l0.1-21.6C97.3,291.5,97.5,291.3,97.7,291.3L97.7,291.3z M97.7,291.3"/>
	<path class="st3" d="M224.7,292l-0.1,48.5c0,0.5,0.2,0.7,0.7,0.7h2c0.5,0,0.7-0.2,0.7-0.7l0.1-48.5c0-0.5-0.2-0.7-0.7-0.7h-2
		C224.9,291.3,224.7,291.5,224.7,292L224.7,292z M224.7,292"/>
	<path class="st3" d="M127.7,300.4c0.1-0.4,1.5-2.9,2.2-3.3v19.2c-0.5-0.4-0.8-0.8-1.2-1.3c-0.1-0.2-0.3-0.4-0.4-0.6
		c-0.1-0.2-0.2-0.4-0.4-0.6c-0.1-0.2-0.2-0.3-0.3-0.5c-0.1-0.1-0.2-0.3-0.2-0.5c-0.1-0.2-0.2-0.5-0.3-0.7c0-0.1-0.1-0.2-0.1-0.4
		c-0.1-0.2-0.1-0.3-0.2-0.4c-0.1-0.4-0.3-0.9-0.4-1.7c-0.1-1-0.2-2-0.2-2.4c0-1.1,0-2.1,0.2-3.2c0.1-0.3,0.1-0.6,0.2-0.8
		c0.1-0.7,0.1-0.8,0.6-2c0.1-0.1,0.2-0.4,0.2-0.6C127.6,300.6,127.7,300.5,127.7,300.4L127.7,300.4z M127.7,300.4"/>
	<path class="st3" d="M132.4,324.9l-4.9,14.3c-0.1,0.2-1.4-0.3-1.6-0.4l-1.1-0.4c-0.2-0.1-0.5-0.2-0.4-0.4l5.3-16.4
		c0.1,0.3,0.3,0.5,0.6,0.8C131.1,323.6,132.1,324.8,132.4,324.9L132.4,324.9z M132.4,324.9"/>
	<path class="st3" d="M149,325.3c0.6,1.2,0.4,2.4-0.2,3.5c-0.5,1-5.4,0.9-6.6,0.7c0.8-0.1,2.5-0.6,3-1.2c0.3-0.4,0.5-0.9,0.6-1.4
		c0.1-0.5-0.1-1.2-0.4-1.5c-0.5-0.8-1.3-1.3-1.6-1.5C145.8,324.5,148.6,324.5,149,325.3L149,325.3z M149,325.3"/>
	<path class="st1" d="M209.1,264.1l10.5-0.2l-0.2,3.5l-10.7,0.3L209.1,264.1z M156.9,263.8l49-0.1c0,2.4-0.1,6.5-1.3,8.1
		c-3.4,1.1-22.8,0.8-27.8,0.7c-4.6-0.1-9.4-0.1-13.9-0.4c-3-0.2-4.2,0.3-4.9-2.4C157.8,268.6,156.9,264.3,156.9,263.8L156.9,263.8z
		 M70.5,268.1l-0.4-4l30.1-0.1c-0.4,5.1-0.9,4.2-12.6,4.3C82.3,268.4,75.7,268.6,70.5,268.1L70.5,268.1z M162,176.2
		c0.1-2,1.6-5.6,2.9-6.7c0.3-1.7,2.7-4.9,3.9-5.6l1.4-1.5c3.3-5.4,10.4-0.5,12.8,2c8,8.6,14.7,27.2,18.5,38.9
		c3.7,11.5,10,34.5,10.3,47c0.2,8.3-1.3,7.8-3.9,10.2c-1.3,1.2-1.5,1.1-3.6,1.1c-12.8-0.1-25.6,0-38.4,0c-1.9,0-8.1,0.3-9.5,0
		c-1.3-0.3-4.4-2.9-5.2-4.4c-1.9-3.6-1.8-12.3-1.6-17c0.5-11.3,2.1-23.4,4.1-34.3C154.7,200.5,159.4,178.7,162,176.2L162,176.2z
		 M140.6,216.5c3-0.6,4.8-0.9,8.1,0l-1,9.3l-0.4,2.7l-8.1,1.2c-0.7-4-0.7-8-1.5-11.9C138.7,217.2,139,216.9,140.6,216.5L140.6,216.5
		z M222.6,251.7c1.7,11.3-1.1,10.3-10.9,10.2c0.5-1.5,2.3-2.2,2.9-5.9c1.5-9.3-3.3-29-5.7-38.4c-1.1-4.2-3.3-10.2-3.9-14.1
		C211.2,208.1,220.8,240.3,222.6,251.7L222.6,251.7z M163.4,165l-0.7,1.5l-0.5,0.6c-0.8,2.2-2.8,5.9-4.5,10.8
		c-1.3,3.7-2.5,7.5-3.5,11.4c-2.2,8.2-3.7,16.3-5,25c-6.5,0.4-10.9-2-13.8,4.4c-9.3,1-15.1,7.1-19.7,11.5c-2.4,2.3-5.2,5.1-7.2,8.1
		c-4.3,6.5,0,21.6-7.5,23.6L70.4,262c-4.2-0.4-5.1-7.7-3.2-10.7c-0.3-1.4,0.2-3.1,0.5-4.8c0.1-0.8,0.3-1.6,0.5-2.4
		c0.3-1.3,0.2-1.1,0.8-2c-0.4-3.1,5.5-20.2,6.9-23.6c2.8-7.1,5.8-15,10.1-20.1c1.2-2,5.7-5.8,8.7-3.2c2.1,1.8,3.8,5.8,5.2,8.1
		c1.6,0.4,1.7-0.2,2.6-1.3c4.4-5.8,23.9-34.6,25.2-35.4l1.2-2.2c0.9-3.3,2.3-4.7,2.6-9.1c1.7-7-0.9-4.9,0.7-10.4
		c-2.8-1.6-1.5-5.2,0.2-6.8c6.1-5.9,17.8-7.1,26.4-6.5c6.2,0.5,12.8,2.2,16.1,5.7c2.2,2.3,1.1,5.3,0.9,9.2
		c-0.1,2.3,0.1,8.6-0.7,10.1c-1.6,1.1-4.2,0.5-7.1,3.2C166.9,160.9,164.4,164.4,163.4,165L163.4,165z M184.1,98.2
		c-0.4,3.3-2.2,17.6-3.4,19.4l-3.6,18.9c-1.4-0.7-2.3-2.2-4.5-3.3c-5.6-3-13.2-3.8-19.6-3.6c-10.6,0.2-16.1,2.6-23.2,8.1l-4.3-19.6
		l-3.9-18.8c-0.4-4.4-2-17.3,0.4-20.4l-0.2-0.5c0.2-1.5,1.8-8.6,2.5-10.1c0.5-1,0.2-0.4,0.7-0.9c0.1-1.7,1-3.8,2.4-4.8
		c-0.2-2.4,5.5-8.2,7.4-9.4c2.3-1.5,8.8-5.2,12.2-4.4c3.4-2,12.9-0.3,16.7,0.9c6.4,2.1,7.4,3.3,10.9,7.6c4,3.9,6.6,12.4,8.4,19.5
		C184.4,85.5,184.5,88.9,184.1,98.2L184.1,98.2z M143.5,47l-1.8,0.5l-4,1.5c0.7-1.1,3.1-3.3,4.3-3.6c0.4-0.5-0.2-0.1,0.8-0.9
		c0.3-0.2,0.5-0.3,0.9-0.4c7.5-6,20.6,0.3,22.6,4.1C155,46.1,157.8,44.8,143.5,47L143.5,47z M152.6,33.2c0,1.8,0.3,3.6,0,5.3l-1.9,0
		c-0.4-1.9-0.1-3.8-0.2-5.7c-0.1-1.9-1.4-3,0.8-3.3C154,29.2,152.6,31.5,152.6,33.2L152.6,33.2z M148.2,28.6c-0.9-6.8,7.8-6.6,6.5,0
		c-1.1-0.4-1.7-1.2-3.5-1.1C149.3,27.7,149.3,28.6,148.2,28.6L148.2,28.6z M145,37.3c-10.5,4.1-15,11.3-20.6,19.4
		c0,0-0.5,0.6-0.5,0.6c-2.1,2.5-3.5,5.8-4.7,9.2c-6,17-3.8,31-0.1,48.2c2.6,12,10.5,35.8,5.1,46.7c-2.7,5.5-12.6,18.1-17.1,24.6
		c-1.4,1.9-4.2,7.2-5.8,8c-2.3-2.5-4.6-5.9-10.2-5.1c-14.2,1.9-24.4,39.2-27.4,51.3c-1,4.2-2.1,8.8-2.4,13.2
		c-0.9,10.2,2.6,9.9,3.4,12c0.8,2-0.2,3.8,1.5,6.2c1.3,1.7,3,2.1,5.4,2.2c5.1,0.2,10.6,0.1,15.7,0.1c9.9-0.1,15.8,1.4,17.8-5.7
		c2.1-7.3,5.1-0.9,6.6-17.2c0.6-7.3-0.5-7.3,3.5-12.2c2.7-3.3,12.1-12.9,17.8-13.7c1.2,2.9,0,6.7,2.4,9.4c1.9,2.2,5.5,2.7,8.8,2.9
		c-0.1,8-1.3,18.7,3.4,24.3c4.1,5,3,0.2,5,8.8c1,4,2.8,6.2,7.1,6.7c8.5,1,31.3,0.9,41.1,0.4c7.2-0.4,6-0.4,9.6-4.4
		c2.8-0.1,8.7,0.2,11-0.6c4.2-1.4,2.8-4.5,3.9-7.5c0.9-2.5,3.2-1.8,3.3-8.2c0-3.5-0.6-7-1.3-10.2c-2.8-13.7-10.5-39-19.6-48.8
		c-3.3-3.5-2.3-1-4.6-6.8c-1-2.7-2.1-5.4-3.3-8.1c-3.5-8-9.9-23.6-18.8-26.9c0.1-6.4,0.4-12.4,1.6-18.4c3-15.2,8.2-38.4,7.2-52.6
		c-0.7-11.3-4.4-22.8-9.8-30c-6.8-8.8-10-13.1-21.8-18.3c-0.1-4.5,0.1-2.6,1.4-5.8c2.5-5.9-1.5-13.2-8.5-13
		c-4.2,0.1-7.4,3.5-8.3,6.8c-0.6,2.1-0.5,4.5,0.4,6.5C144.7,34.6,145,32.4,145,37.3L145,37.3z M145,37.3"/>
	<path class="st2" d="M129,164.4c1.2-0.3,1.3,6.7,1.4,8.3c0.3,3.3,0.7,6,0.9,9.3c0.3,6.1,1.3,10.5,1.2,16
		c-32.1,1.4-16,15.9-37.7-2.7c-3.1-2.6-7.6,1.1-8.7,3.2c1.4,0.5,0.3,1.2,0.3,2.8c-0.1,2.3-2.9,11.5-3.6,14.1
		c-1.3,4.7-2.5,9.6-3.5,14.4c-1,5-3.4,16.8-5.6,21.1c-1.4,2.7-1.5,4.2-5.5,3.9c-1-2-0.5-1.2-0.9-3.5c-1.9,3-1,10.3,3.2,10.7
		l30.6-0.1c7.5-1.9,3.1-17,7.5-23.6c2-3,4.8-5.8,7.2-8.1c4.6-4.4,10.4-10.5,19.7-11.5c2.9-6.4,7.3-4,13.8-4.4c1.3-8.6,2.9-16.7,5-25
		c1-3.9,2.3-7.7,3.5-11.4c1.7-4.9,3.7-8.6,4.5-10.8c-1.2-0.8-2.5-5.6-5.9-8.1c-0.7-0.5-1.1-0.7-1.8-1.2c-1.4-1-1.7-1.8-3.9-1.8
		c-3,4.6-0.9,9-2.3,12.3c-1-1.9-0.7-14.9-0.1-17.6c0.1-0.3,0.2-0.7,0.2-0.8l0.7-2.5c2.3-4.7,6-0.2,7.2,3.2
		c0.2,2.3,7.5,10.1,7.1,14.4c1-0.6,3.5-4.1,4.8-5.2c2.9-2.6,5.5-2.1,7.1-3.2c0.8-1.5,0.6-7.8,0.7-10.1c0.2-3.9,1.3-6.9-0.9-9.2
		c-3.4-3.5-9.9-5.2-16.1-5.7c-8.5-0.6-20.3,0.6-26.4,6.5c-1.7,1.7-2.2,3.9-1.7,6.5c0.3,5.1,1.2,3.7,0.7,10.7
		C131.2,159.8,129.9,161.1,129,164.4L129,164.4z M129,164.4"/>
	<path class="st2" d="M170.2,162.4c4.4,0.2,2.9,16.4,2.9,21l-0.3,47.2c-0.1,8.5-1.6,19.7-10.7,19.3c-1.1,0-2.6-1.3-3.6-2
		c-5.6-3.7-4.1-24.7-3.2-30.7c0.5-3.3,0.6-7.9,1-11.2c0.4-3.7,0.8-6.7,1.4-10.3l4.3-19.5c-2.6,2.5-7.3,24.3-8.3,29.8
		c-2,10.9-3.6,22.9-4.1,34.3c-0.2,4.7-0.3,13.4,1.6,17c0.8,1.5,3.9,4.1,5.2,4.4c1.4,0.3,7.6,0,9.5,0c12.8,0,25.6-0.1,38.4,0
		c2.1,0,2.4,0.1,3.6-1.1c2.6-2.5,4.1-2,3.9-10.2c-0.3-12.5-6.6-35.5-10.3-47c-3.7-11.6-10.5-30.3-18.5-38.9
		C180.6,161.9,173.5,157.1,170.2,162.4L170.2,162.4z M170.2,162.4"/>
	<path class="st4" d="M141.9,86.2c7.8-1.1,10.4-1.2,18.3-0.9l-0.5,21.5c6.3,0.5,9.2,2.2,14,3.7l-1.9,16.4c-4.5-1.1-6.7-2.2-12.3-2.9
		l0.3-17.3c-6.7-0.4-9.8,0-16.3,0.6L141.9,86.2z M147,48.6l2.2-0.1c0,2.2,0.3,1.8-0.8,3.1l10.9,0.1l0.9,13.1
		c-3.7-0.3-13.3-1.3-16,0.7l2.5-0.1c-0.5,1.5-1.4,2-1.7,3.7c-0.9,5.2-3.2,9.2-3,13.1c-0.1-2.8,0.1-0.5-0.7-1.4
		c0,1.2,0.1,2.2,0.2,3.4c0.1,1.8,0.3,1.5-0.7,2.6c0.3,0.2,0.4,9.3,0.4,10.8c0,2.6,0.2,3.4-0.1,5.4c-0.3,2.1,0.7,3.2,0.1,5.1l1.8-0.4
		l1.6,16.6c-1.3,0.9-3,0.6-4.1,1.6l1.1,0c-0.2,3.2,0.1-0.1-1.8,3.9c-1.9-0.3-5.3,1.4-4.6-1.9l-1.7,0.6l-2.9-15.7
		c-2.7,1.2-3.3,3.3-5.3,5.3l4.3,19.6c7.1-5.5,12.6-7.9,23.2-8.1c6.4-0.1,14,0.7,19.6,3.6c2.2,1.2,3.1,2.6,4.5,3.3l3.6-18.9
		c-1.1-3.2-3.9-5.3-6.8-6.9l2.3-20.1c5.2,2,6.3,7.3,7.9,7.6c0.3-9.3,0.3-12.6-1-21.5c-2.3-1.7-2.9-4.2-5.9-5.5l-1.2,19
		c-4.4-1.9-9.9-4.9-15.7-4.8l0-20.2c5.9-0.5,12.4,4.1,16.6,5.5c-0.3-5.4-1.7-8.9-2.3-13.5c-3.5-4.2-4.6-5.5-10.9-7.6
		C159.9,48.3,150.4,46.6,147,48.6L147,48.6z M147,48.6"/>
	<path class="st3" d="M164.9,169.6c-0.1,2-2,6.7-2.5,9c-3.3,12.8-3.5,16.3-5,29.7c-0.9,8.1-3.9,39.1,5.8,38c4.1-0.5,3.8-2.8,4.8-6.6
		c2.9-10.7,2.9-19.8,3-31.7c0.1-7.7,0.4-15.4,0.4-22.7c0-5.7,1.6-17.3-1.1-21.3l-1.5-0.1C167.6,164.7,165.2,167.9,164.9,169.6
		L164.9,169.6z M164.9,169.6"/>
	<path class="st2" d="M143.5,107.3c6.5-0.6,9.6-1,16.3-0.6l-0.3,17.3c5.5,0.7,7.8,1.9,12.3,2.9l1.9-16.4c-4.9-1.5-7.7-3.2-14-3.7
		l0.5-21.5c-7.9-0.3-10.5-0.1-18.3,0.9L143.5,107.3z M143.5,107.3"/>
	<path class="st5" d="M127.8,166.6c0.6-0.2,1-1.2,0.9,2.9c-0.1,4.3-2.9,8.3-5.4,11.5l-4,4.8c-2,1.6-1.3,1.5-3.3,2.9
		c-1.2,0.9-0.2,0-1.1,1c-4.7,5.1-2,2.2-5.8,7l-3.6,4.8c-1.3,1.4-3,3.5-5.4,3c9.5,4.2,23.6-0.9,25.1-3.5c1.6-1.6,5.3-2.6,7.3-2.9
		c0.2-5.5-0.9-10.3-1.2-16.3c-0.2-3.2-0.5-6-0.9-9.3c-0.2-1.6-0.2-8.6-1.4-8.3L127.8,166.6z M127.8,166.6"/>
	<path class="st6" d="M204.6,271.7c1.2-1.5,1.4-5.7,1.3-8.1l-49,0.1c-0.1,0.5,0.8,4.8,1.1,5.8c0.7,2.7,1.9,2.3,4.9,2.4
		c4.5,0.3,9.3,0.4,13.9,0.4C181.8,272.5,201.2,272.8,204.6,271.7L204.6,271.7z M204.6,271.7"/>
	<path class="st2" d="M183.1,76.6c-1.9-7.1-4.4-15.6-8.4-19.5c0.6,4.6,2.1,8.2,2.3,13.5c-4.2-1.4-10.7-6-16.6-5.5l0,20.2
		c5.8-0.1,11.2,2.9,15.7,4.8l1.2-19C180.2,72.5,180.9,74.9,183.1,76.6L183.1,76.6z M183.1,76.6"/>
	<path class="st5" d="M168.8,163.9l1.5,0.1c2.7,3.9,1.1,15.6,1.1,21.3c-0.1,7.3-0.4,15-0.4,22.7c-0.1,11.9-0.1,21-3,31.7
		c-1,3.8-0.7,6.1-4.8,6.6c-9.7,1.1-6.7-29.9-5.8-38c1.5-13.4,1.7-16.9,5-29.7c0.6-2.2,2.4-7,2.5-9c-1.3,1.1-2.9,4.7-2.9,6.7
		l-4.3,19.5c-0.6,3.6-1,6.6-1.4,10.3c-0.3,3.2-0.5,7.8-1,11.2c-0.9,6-2.4,27,3.2,30.7c1.1,0.7,2.5,2,3.6,2
		c9.1,0.4,10.6-10.7,10.7-19.3l0.3-47.2c0-4.6,1.5-20.8-2.9-21L168.8,163.9z M168.8,163.9"/>
	<path class="st2" d="M126.5,93.8c-0.8,1.4-1.6,1.7-2.6,3.1c-1,1.4-1.3,3.3-2.2,2.4l3.9,18.8c2-2,2.6-4.1,5.3-5.3l2.9,15.7l1.7-0.6
		c1-0.8,3.8-1.9,5.3-2c1.1-1.1,2.8-0.8,4.1-1.6l-1.6-16.6l-1.8,0.4c-4.3,0.7-7.4,3.2-10.7,4.6l-3.1-18.7
		C127.1,93.6,128,93.2,126.5,93.8L126.5,93.8z M126.5,93.8"/>
	<path class="st7" d="M121.9,78.3l0.2,0.5c0.3,2.7-0.4,1.7,0.7,4.4c0.4,1.1,0.8,2.2,1.2,3.6c0.4,1.2,2,6.5,2.5,7
		c1.5-0.6,0.6-0.2,1.1,0.1l3.1,18.7c3.3-1.4,6.4-3.8,10.7-4.6c0.6-1.9-0.4-3-0.1-5.1c0.3-1.9,0.1-2.8,0.1-5.4
		c0-1.5-0.1-10.6-0.4-10.8c-4.5-0.3-10.5,4.5-13.6,6.1l-1.4-17.6c-0.1-2,0.1-0.6-0.7-1L121.9,78.3z M121.9,78.3"/>
	<path class="st2" d="M211.6,261.9c9.8,0.1,12.7,1.1,10.9-10.2c-1.7-11.4-11.4-43.6-17.7-48.2c0.6,3.9,2.8,9.8,3.9,14.1
		c2.5,9.3,7.3,29.1,5.7,38.4C213.9,259.7,212.1,260.4,211.6,261.9L211.6,261.9z M211.6,261.9"/>
	<path class="st7" d="M127.5,62.4c-1.2,3.2-1.5,7.8-1.6,11.4c1-0.4,3.5-2.5,5.9-3.9c2-1.1,4.8-2.6,7.1-3.1l2.2-0.7
		c-0.9,3.1,0.3,11,0.4,14.6c0.8,0.9,0.6-1.3,0.7,1.4c-0.2-3.8,2.1-7.9,3-13.1c0.3-1.7,1.2-2.2,1.7-3.7l-2.5,0.1l-3.1,0.3l-0.1-5.2
		c0.1-2.4,0-5.9,1-7.8l1.5-0.4l4.9-0.8c1.1-1.3,0.8-0.9,0.8-3.1l-2.2,0.1c-3.4-0.8-9.9,2.9-12.2,4.4
		C132.9,54.3,127.3,60.1,127.5,62.4L127.5,62.4z M127.5,62.4"/>
	<path class="st3" d="M69,242.2c-0.2,2.3-1.1,6.8,0.4,8.1c2,1.2,3.5-2.5,4-3.9c0.9-2.4,0.8-3.8,2-6.4l9.4-35.4
		c0.2-0.5,0.3-1.3,0.5-1.8l1-1.6c0-1.7,1.1-2.3-0.3-2.8c-4.3,5-7.4,13-10.1,20.1C74.6,222,68.7,239,69,242.2L69,242.2z M69,242.2"/>
	<path class="st2" d="M138.8,66.9c-1.2,2.1-0.6,2.6-2.3,4.2c-2.6,2.4,0.9,0.4-3.5,3.8c-3.4,2.6-3,2.3-7.1,0.3l1.4,17.6
		c3.1-1.6,9.2-6.4,13.6-6.1c0.9-1,0.8-0.8,0.7-2.6c-0.1-1.2-0.2-2.2-0.2-3.4c-0.1-3.6-1.3-11.4-0.4-14.6L138.8,66.9z M138.8,66.9"/>
	<path class="st2" d="M143.6,52.3c-0.1,2-0.4,2.8-0.9,4.4c-0.8,2.7-0.2,3.2-1.6,3.9l0.1,5.2l3.1-0.3c2.7-2,12.3-0.9,16-0.7
		l-0.9-13.1l-10.9-0.1L143.6,52.3z M143.6,52.3"/>
	<path class="st2" d="M180.7,117.6c1.2-1.8,3-16.1,3.4-19.4c-1.7-0.3-2.7-5.5-7.9-7.6l-2.3,20.1
		C176.8,112.3,179.6,114.4,180.7,117.6L180.7,117.6z M180.7,117.6"/>
	<path class="st3" d="M100,203.4l0.1,1.3c2.5,0.5,4.2-1.6,5.4-3l3.6-4.8c3.8-4.8,1.1-1.9,5.8-7c0.9-1-0.1-0.2,1.1-1
		c2-1.4,1.3-1.3,3.3-2.9l4-4.8c2.5-3.2,5.3-7.2,5.4-11.5c0.1-4.1-0.3-3.1-0.9-2.9c-1.4,0.8-20.8,29.7-25.2,35.4
		C101.7,203.2,101.6,203.8,100,203.4L100,203.4z M100,203.4"/>
	<path class="st6" d="M70.5,268.1c5.1,0.5,11.8,0.3,17.1,0.2c11.8-0.1,12.2,0.8,12.6-4.3l-30.1,0.1L70.5,268.1z M70.5,268.1"/>
	<path class="st5" d="M69,242.2c-0.7,0.9-0.5,0.7-0.8,2c-0.2,0.8-0.3,1.6-0.5,2.4c-0.3,1.6-0.8,3.3-0.5,4.8c0.4,2.3-0.1,1.5,0.9,3.5
		c4,0.3,4.1-1.1,5.5-3.9c2.2-4.3,4.6-16.1,5.6-21.1c0.9-4.8,2.2-9.7,3.5-14.4c0.7-2.6,3.6-11.8,3.6-14.1l-1,1.6
		c-0.2,0.4-0.3,1.2-0.5,1.8L75.4,240c-1.1,2.6-1.1,4-2,6.4c-0.5,1.4-2.1,5.1-4,3.9C67.9,249,68.8,244.4,69,242.2L69,242.2z
		 M69,242.2"/>
	<path class="st3" d="M162.7,166.6l0.7-1.5c0.4-4.3-6.8-12.1-7.1-14.4c-2.8-1.6-1.2-4.1-5.5-3.8c-1.5,2.1-1.6,2.8-1.5,6.3
		c2.2,0.6,6.6,3.8,8.3,5.2l0.5,0.5C160.9,162.5,161.4,165.7,162.7,166.6L162.7,166.6z M162.7,166.6"/>
	<path class="st8" d="M140.6,216.5c-0.6,1.7-0.1,3.8,0,6.1c0.1,1.7,1,3.9,1.6,4.9c0.1,0,3.3,1.8,5.3-1.3c0-0.1,0.1-0.2,0.2-0.3
		l1-9.3C145.4,215.6,143.6,215.9,140.6,216.5L140.6,216.5z M140.6,216.5"/>
	<path class="st2" d="M143.7,44.1c1.9-0.2,0.5-0.1,1,0.4l-0.3,1.6c-0.1,0.1-0.1,0.1-0.2,0.2c-0.1,0.1-0.2,0.1-0.2,0.2
		c-0.1,0.1-0.2,0.2-0.3,0.2c-0.1,0.1-0.2,0.1-0.3,0.2c14.3-2.2,11.5-0.8,22.8,1.3C164.3,44.4,151.2,38,143.7,44.1L143.7,44.1z
		 M143.7,44.1"/>
	<path class="st5" d="M125.1,67.2c-0.4,3.7,0.2,3.8,0.2,6.9c0.8,0.4,0.5-0.9,0.7,1c4.1,2,3.6,2.3,7.1-0.3c4.5-3.4,1-1.4,3.5-3.8
		c1.7-1.6,1-2.1,2.3-4.2c-2.3,0.5-5.1,2-7.1,3.1c-2.4,1.3-4.8,3.5-5.9,3.9c0.1-3.6,0.4-8.2,1.6-11.4
		C126.1,63.4,125.1,65.5,125.1,67.2L125.1,67.2z M125.1,67.2"/>
	<path class="st4" d="M121.6,99.2c1,0.9,1.2-1,2.2-2.4c1-1.4,1.8-1.7,2.6-3.1c-0.5-0.5-2.1-5.8-2.5-7c-0.4-1.4-0.8-2.5-1.2-3.6
		c-1-2.6-0.4-1.7-0.7-4.4C119.6,81.9,121.3,94.8,121.6,99.2L121.6,99.2z M121.6,99.2"/>
	<path class="st5" d="M162.2,167.2l0.5-0.6c-1.3-0.9-1.8-4.1-4.6-7.6l-0.5-0.5c-1.6-1.5-6.1-4.6-8.3-5.2c-0.1-3.5,0-4.2,1.5-6.3
		c4.3-0.3,2.8,2.2,5.5,3.8c-1.2-3.4-4.9-7.8-7.2-3.2l-0.7,2.5c0,0.2-0.1,0.5-0.2,0.8c-0.6,2.7-0.9,15.7,0.1,17.6
		c1.3-3.3-0.8-7.7,2.3-12.3c2.3,0,2.6,0.8,3.9,1.8c0.7,0.5,1.1,0.7,1.8,1.2C159.7,161.5,161,166.3,162.2,167.2L162.2,167.2z
		 M162.2,167.2"/>
	<path class="st6" d="M147.7,225.9c-0.1,0.1-0.1,0.2-0.2,0.3c-2,3.1-5.2,1.4-5.3,1.3c-0.7-1-1.5-3.3-1.6-4.9c-0.1-2.3-0.6-4.4,0-6.1
		c-1.6,0.4-1.9,0.6-2.8,1.3c0.8,3.9,0.8,7.9,1.5,11.9l8.1-1.2L147.7,225.9z M147.7,225.9"/>
	<path class="st6" d="M208.8,267.7l10.7-0.3l0.2-3.5l-10.5,0.2L208.8,267.7z M208.8,267.7"/>
	<path class="st6" d="M148.2,28.6c1.2,0,1.2-0.9,3.1-1.1c1.8-0.1,2.4,0.7,3.5,1.1C156,22,147.2,21.8,148.2,28.6L148.2,28.6z
		 M148.2,28.6"/>
	<path class="st2" d="M150.7,38.5l1.9,0c0.4-1.7,0-3.6,0-5.3c0-1.7,1.4-4-1.3-3.6c-2.2,0.3-1,1.3-0.8,3.3
		C150.5,34.7,150.3,36.6,150.7,38.5L150.7,38.5z M150.7,38.5"/>
	<path class="st7" d="M135.4,127.8c-0.7,3.4,2.6,1.6,4.6,1.9c1.9-4,1.7-0.6,1.8-3.9l-1.1,0C139.2,125.9,136.3,127,135.4,127.8
		L135.4,127.8z M135.4,127.8"/>
	<path class="st2" d="M121.9,78.3l3.4-4.1c0-3.1-0.6-3.2-0.2-6.9c-0.5,0.5-0.2-0.1-0.7,0.9C123.6,69.7,122.1,76.8,121.9,78.3
		L121.9,78.3z M121.9,78.3"/>
	<path class="st5" d="M141.1,60.6c1.4-0.6,0.7-1.2,1.6-3.9c0.5-1.6,0.9-2.4,0.9-4.4l-1.5,0.4C141.1,54.7,141.2,58.2,141.1,60.6
		L141.1,60.6z M141.1,60.6"/>
	<path class="st3" d="M141.7,47.4l0.5-0.5c0.2-0.3,0.2-0.2,0.4-0.5c0.3-0.5,0.1-0.2,0.2-1l-0.8,0c-1.3,0.3-3.7,2.4-4.3,3.6
		L141.7,47.4z M141.7,47.4"/>
	<path class="st5" d="M142,45.4l0.8,0c-0.1,0.8,0.1,0.5-0.2,1c-0.2,0.3-0.2,0.2-0.4,0.5l-0.5,0.5l1.8-0.5c0.1-0.1,0.2-0.2,0.3-0.2
		c0.1-0.1,0.2-0.1,0.3-0.2c0.1-0.1,0.2-0.1,0.2-0.2c0.1-0.1,0.1-0.1,0.2-0.2l0.3-1.6c-0.5-0.6,0.9-0.6-1-0.4
		c-0.4,0.2-0.6,0.2-0.9,0.4C141.8,45.3,142.4,44.9,142,45.4L142,45.4z M142,45.4"/>
</g>
</svg>
